<svg xmlns="http://www.w3.org/2000/svg" xmlns:xlink="http://www.w3.org/1999/xlink" width="500" zoomAndPan="magnify" viewBox="0 0 375 83.04" height="100" preserveAspectRatio="xMidYMid meet" version="1.0"><defs><g/><clipPath id="e0b46f7e7b"><rect x="0" width="359" y="0" height="54"/></clipPath></defs><g transform="matrix(1, 0, 0, 1, 9, 7)"><g clip-path="url(#e0b46f7e7b)"><g fill="#ffffff" fill-opacity="1"><g transform="translate(0.557143, 45.51727)"><g><path d="M 19.5 -36.015625 C 17.113281 -36.015625 14.894531 -35.414062 12.84375 -34.21875 C 10.800781 -33.03125 9.171875 -31.410156 7.953125 -29.359375 C 6.742188 -27.316406 6.140625 -25.082031 6.140625 -22.65625 L 6.140625 -15.609375 C 6.140625 -13.078125 6.5 -10.988281 7.21875 -9.34375 C 8.207031 -7.03125 9.71875 -5.144531 11.75 -3.6875 C 13.78125 -2.226562 16.0625 -1.410156 18.59375 -1.234375 L 18.59375 -18.59375 L 34.890625 -18.59375 L 34.890625 -15.0625 C 34.890625 -12.789062 34.550781 -10.765625 33.875 -8.984375 C 32.769531 -6.023438 30.914062 -3.65625 28.3125 -1.875 C 25.71875 -0.09375 22.78125 0.796875 19.5 0.796875 C 16.40625 0.796875 13.582031 -0.046875 11.03125 -1.734375 C 8.488281 -3.429688 6.628906 -5.6875 5.453125 -8.5 C 4.597656 -10.488281 4.171875 -12.859375 4.171875 -15.609375 L 4.171875 -22.65625 C 4.171875 -25.4375 4.851562 -28 6.21875 -30.34375 C 7.59375 -32.695312 9.457031 -34.5625 11.8125 -35.9375 C 14.164062 -37.3125 16.726562 -38 19.5 -38 C 21.820312 -38 23.941406 -37.613281 25.859375 -36.84375 C 27.785156 -36.082031 29.425781 -34.96875 30.78125 -33.5 C 31.882812 -32.289062 32.78125 -30.9375 33.46875 -29.4375 C 34.164062 -27.945312 34.515625 -26.4375 34.515625 -24.90625 L 32.59375 -24.90625 C 32.5625 -26.21875 32.234375 -27.515625 31.609375 -28.796875 C 30.984375 -30.078125 30.191406 -31.238281 29.234375 -32.28125 C 26.847656 -34.769531 23.601562 -36.015625 19.5 -36.015625 Z M 32.921875 -16.671875 L 20.515625 -16.671875 L 20.515625 -1.234375 C 23.085938 -1.410156 25.394531 -2.21875 27.4375 -3.65625 C 29.488281 -5.101562 30.992188 -7.019531 31.953125 -9.40625 C 32.597656 -11.082031 32.921875 -12.96875 32.921875 -15.0625 Z M 32.921875 -16.671875 "/></g></g></g><g fill="#ffffff" fill-opacity="1"><g transform="translate(40.09539, 45.51727)"><g><path d="M 37.296875 0 L 2.25 0 L 19.765625 -38 Z M 5.34375 -1.984375 L 34.203125 -1.984375 L 19.765625 -33.296875 Z M 5.34375 -1.984375 "/></g></g></g><g fill="#ffffff" fill-opacity="1"><g transform="translate(79.633637, 45.51727)"><g><path d="M 4.75 -37.25 L 6.890625 -37.25 L 19.875 -14.265625 L 32.8125 -37.25 L 34.78125 -37.25 L 34.78125 -0.046875 L 4.75 -0.046875 Z M 6.734375 -1.984375 L 32.8125 -1.984375 L 32.8125 -33.234375 L 20.78125 -12.078125 L 18.921875 -12.078125 L 6.734375 -33.5625 Z M 6.734375 -1.984375 "/></g></g></g><g fill="#ffffff" fill-opacity="1"><g transform="translate(119.171885, 45.51727)"><g><path d="M 6.40625 -37.1875 L 33.5 -37.1875 L 33.5 -27.78125 L 16.140625 -27.78125 L 16.140625 -23.078125 L 30.5625 -23.078125 L 30.5625 -14.15625 L 16.140625 -14.15625 L 16.140625 -9.40625 L 33.5 -9.40625 L 33.5 0 L 6.40625 0 Z M 6.40625 -37.1875 "/></g></g></g><g fill="#ffffff" fill-opacity="1"><g transform="translate(158.710132, 45.51727)"><g><path d="M 20.03125 0.96875 C 14.875 0.96875 10.894531 -0.25 8.09375 -2.6875 C 5.300781 -5.132812 3.921875 -8.800781 3.953125 -13.6875 L 12.671875 -13.6875 C 12.628906 -11.65625 13.234375 -10.101562 14.484375 -9.03125 C 15.734375 -7.957031 17.476562 -7.421875 19.71875 -7.421875 C 21.570312 -7.421875 23.03125 -7.722656 24.09375 -8.328125 C 25.164062 -8.941406 25.703125 -9.867188 25.703125 -11.109375 C 25.703125 -12.148438 25.15625 -12.898438 24.0625 -13.359375 C 22.976562 -13.816406 21.898438 -14.144531 20.828125 -14.34375 C 19.765625 -14.539062 19.109375 -14.65625 18.859375 -14.6875 C 16.117188 -15.226562 13.75 -15.878906 11.75 -16.640625 C 9.757812 -17.410156 8.085938 -18.578125 6.734375 -20.140625 C 5.378906 -21.710938 4.703125 -23.78125 4.703125 -26.34375 C 4.703125 -28.90625 5.378906 -31.085938 6.734375 -32.890625 C 8.085938 -34.691406 9.894531 -36.035156 12.15625 -36.921875 C 14.414062 -37.816406 16.882812 -38.265625 19.5625 -38.265625 C 22.800781 -38.265625 25.601562 -37.65625 27.96875 -36.4375 C 30.34375 -35.226562 32.207031 -33.394531 33.5625 -30.9375 C 34.238281 -29.757812 34.644531 -28.628906 34.78125 -27.546875 C 34.925781 -26.460938 35 -25.40625 35 -24.375 L 26.296875 -24.375 C 26.296875 -26.289062 25.773438 -27.703125 24.734375 -28.609375 C 23.703125 -29.523438 22.101562 -29.984375 19.9375 -29.984375 C 18.1875 -29.984375 16.828125 -29.675781 15.859375 -29.0625 C 14.898438 -28.457031 14.421875 -27.640625 14.421875 -26.609375 C 14.421875 -25.472656 15.0625 -24.632812 16.34375 -24.09375 C 17.632812 -23.5625 19.257812 -23.082031 21.21875 -22.65625 C 24.425781 -22.019531 26.925781 -21.40625 28.71875 -20.8125 C 30.519531 -20.226562 32.078125 -19.1875 33.390625 -17.6875 C 34.710938 -16.1875 35.375 -14.082031 35.375 -11.375 C 35.375 -8.8125 34.660156 -6.601562 33.234375 -4.75 C 31.804688 -2.90625 29.925781 -1.488281 27.59375 -0.5 C 25.257812 0.476562 22.738281 0.96875 20.03125 0.96875 Z M 20.03125 0.96875 "/></g></g></g><g fill="#ffffff" fill-opacity="1"><g transform="translate(198.24838, 45.51727)"><g/></g></g><g fill="#ffffff" fill-opacity="1"><g transform="translate(237.786627, 45.51727)"><g><path d="M 5.453125 0 L 5.453125 -37.1875 L 7.421875 -37.1875 L 7.421875 -19.609375 L 32.109375 -19.609375 L 32.109375 -37.1875 L 34.09375 -37.1875 L 34.09375 0 L 32.109375 0 L 32.109375 -17.640625 L 7.421875 -17.640625 L 7.421875 0 Z M 5.453125 0 "/></g></g></g><g fill="#ffffff" fill-opacity="1"><g transform="translate(277.324875, 45.51727)"><g><path d="M 19.765625 0.796875 C 17.054688 0.796875 14.550781 0.117188 12.25 -1.234375 C 9.957031 -2.585938 8.132812 -4.410156 6.78125 -6.703125 C 5.425781 -9.003906 4.75 -11.507812 4.75 -14.21875 L 4.75 -37.1875 L 34.78125 -37.1875 L 34.78125 -14.21875 C 34.78125 -11.507812 34.101562 -9.003906 32.75 -6.703125 C 31.394531 -4.410156 29.566406 -2.585938 27.265625 -1.234375 C 24.972656 0.117188 22.472656 0.796875 19.765625 0.796875 Z M 19.765625 0.796875 "/></g></g></g><g fill="#ffffff" fill-opacity="1"><g transform="translate(316.863122, 45.51727)"><g><path d="M 22.390625 -37.1875 C 24.742188 -37.1875 26.613281 -36.832031 28 -36.125 C 29.675781 -35.269531 30.96875 -34.09375 31.875 -32.59375 C 32.78125 -31.101562 33.234375 -29.429688 33.234375 -27.578125 C 33.234375 -25.828125 32.769531 -24.210938 31.84375 -22.734375 C 30.914062 -21.253906 29.648438 -20.085938 28.046875 -19.234375 C 29.972656 -18.554688 31.59375 -17.378906 32.90625 -15.703125 C 34.226562 -14.035156 34.890625 -12.148438 34.890625 -10.046875 C 34.890625 -8.191406 34.414062 -6.488281 33.46875 -4.9375 C 32.53125 -3.394531 31.28125 -2.175781 29.71875 -1.28125 C 28.925781 -0.851562 28.050781 -0.53125 27.09375 -0.3125 C 26.132812 -0.101562 24.851562 0 23.25 0 L 6.78125 0 L 6.78125 -37.1875 Z M 22.390625 -37.1875 "/></g></g></g></g></g></svg>